<svg id="Layer_3" enable-background="new 0 0 64 64" height="512" viewBox="0 0 64 64" width="512" xmlns="http://www.w3.org/2000/svg"><g><path d="m14 23h36c.552 0 1-.448 1-1v-16c0-.552-.448-1-1-1h-36c-.552 0-1 .448-1 1v16c0 .552.448 1 1 1zm1-16h34v14h-34z"/><path d="m22 14.513-3.152-5.043c-.237-.379-.695-.553-1.124-.432-.429.124-.724.516-.724.962v9h2v-5.513l3.152 5.043c.186.298.51.47.848.47.092 0 .185-.013.276-.039.429-.123.724-.515.724-.961v-9h-2z"/><path d="m26 10v8c0 .552.448 1 1 1h4v-2h-3v-2h3v-2h-3v-2h3v-2h-4c-.552 0-1 .448-1 1z"/><path d="m37 12.808-.071-.179c-.153-.38-.52-.629-.929-.629s-.776.249-.929.628l-.071.18v-3.808h-2v9c0 .479.34.891.811.982.47.089.939-.166 1.118-.61l1.071-2.68 1.071 2.679c.155.385.526.629.929.629.062 0 .126-.006.189-.018.471-.091.811-.503.811-.982v-9h-2z"/><path d="m41 12c0 1.654 1.346 3 3 3 .551 0 1 .449 1 1s-.449 1-1 1h-3v2h3c1.654 0 3-1.346 3-3s-1.346-3-3-3c-.551 0-1-.449-1-1s.449-1 1-1h3v-2h-3c-1.654 0-3 1.346-3 3z"/><path d="m56.462 23.113c-.331-.172-.73-.146-1.035.068l-.427.298v-21.479c0-.552-.448-1-1-1h-44c-.552 0-1 .448-1 1v5h-7c-.552 0-1 .448-1 1v50c0 2.757 2.243 5 5 5h42c3.86 0 7-3.14 7-7v-3.479l.427.299c.171.119.371.18.573.18.158 0 .316-.038.462-.113.33-.172.538-.514.538-.887v-28c0-.373-.208-.715-.538-.887zm-53.462 34.887v-49h6v49c0 1.654-1.346 3-3 3s-3-1.346-3-3zm50-2c0 2.757-2.243 5-5 5h-38.026c.635-.838 1.026-1.87 1.026-3v-55h42v21.879l-7.315 5.121h-6.685c-3.309 0-6 2.691-6 6v4c0 2.607 1.673 4.824 4 5.65v7.35c0 2.206 1.794 4 4 4s4-1.794 4-4v-7h.685l7.315 5.121zm-6-11.521v-12.958l4-2.8v18.559zm-8 1.521h4v7c0 1.103-.897 2-2 2s-2-.897-2-2zm0-2c-2.206 0-4-1.794-4-4v-4c0-2.206 1.794-4 4-4h6v12zm16 6.08-2-1.4v-21.36l2-1.4z"/><path d="m59 35h4v2h-4z"/><path d="m58.379 29.5h4.243v2h-4.243z" transform="matrix(.707 -.707 .707 .707 -3.847 51.713)"/><path d="m59.5 39.379h2v4.243h-2z" transform="matrix(.707 -.707 .707 .707 -11.625 54.935)"/><path d="m14 45h16c.552 0 1-.448 1-1v-18c0-.552-.448-1-1-1h-16c-.552 0-1 .448-1 1v18c0 .552.448 1 1 1zm1-18h14v16h-14z"/><path d="m13 47h22v2h-22z"/><path d="m13 51h22v2h-22z"/><path d="m13 55h22v2h-22z"/></g></svg>