<svg width="286" height="92" viewBox="0 0 286 92" fill="none" xmlns="http://www.w3.org/2000/svg">
<path d="M50.568 41.064C50.888 41.96 51.112 42.984 51.24 44.136C51.432 45.224 51.528 46.344 51.528 47.496C51.528 48.648 51.432 49.8 51.24 50.952C51.112 52.04 50.92 53 50.664 53.832C49.64 57.416 47.592 60.424 44.52 62.856C41.448 65.224 37.928 66.952 33.96 68.04C30.056 69.128 25.992 69.512 21.768 69.192C17.608 68.872 13.896 67.816 10.632 66.024C8.584 64.872 6.824 63.464 5.352 61.8C3.88 60.136 2.632 58.28 1.608 56.232C1.224 55.528 0.968 54.728 0.84 53.832C0.776 52.872 0.872 51.976 1.128 51.144C1.384 50.248 1.8 49.48 2.376 48.84C2.952 48.136 3.752 47.656 4.776 47.4C5.416 47.272 6.12 47.208 6.888 47.208C7.72 47.208 8.52 47.336 9.288 47.592C10.056 47.784 10.76 48.136 11.4 48.648C12.04 49.096 12.552 49.736 12.936 50.568C13.64 51.912 14.632 53.16 15.912 54.312C17.256 55.4 18.664 56.296 20.136 57C22.248 57.704 24.36 57.992 26.472 57.864C28.648 57.736 30.6 57.256 32.328 56.424C34.12 55.592 35.56 54.472 36.648 53.064C37.736 51.592 38.28 49.928 38.28 48.072C38.28 46.536 38.056 45.288 37.608 44.328C37.16 43.304 36.52 42.472 35.688 41.832C34.92 41.128 33.96 40.552 32.808 40.104C31.72 39.656 30.504 39.272 29.16 38.952C27.624 38.632 26.056 38.408 24.456 38.28C22.92 38.152 21.352 37.992 19.752 37.8C18.152 37.608 16.584 37.352 15.048 37.032C13.512 36.712 12.008 36.232 10.536 35.592C7.592 34.376 5.352 32.52 3.816 30.024C2.28 27.528 1.352 24.84 1.032 21.96C0.776 19.08 1.128 16.232 2.088 13.416C3.048 10.536 4.584 8.072 6.696 6.024C8.744 4.168 11.176 2.856 13.992 2.088C16.872 1.256 20.04 0.775997 23.496 0.647999C25.416 0.583996 27.336 0.647995 29.256 0.839996C31.24 1.032 33.128 1.352 34.92 1.8C36.776 2.248 38.472 2.824 40.008 3.528C41.608 4.232 42.984 5.064 44.136 6.024C44.968 6.664 45.8 7.528 46.632 8.616C47.464 9.64 48.104 10.76 48.552 11.976C49 13.128 49.128 14.248 48.936 15.336C48.808 16.424 48.136 17.352 46.92 18.12C45.896 18.76 44.904 19.048 43.944 18.984C43.048 18.856 42.184 18.568 41.352 18.12C40.52 17.608 39.72 17.032 38.952 16.392C38.184 15.752 37.48 15.176 36.84 14.664C35.112 13.384 32.968 12.52 30.408 12.072C27.848 11.624 25.448 11.528 23.208 11.784C21.8 11.976 20.488 12.296 19.272 12.744C18.056 13.192 17 13.8 16.104 14.568C15.272 15.336 14.6 16.296 14.088 17.448C13.64 18.536 13.48 19.784 13.608 21.192C13.672 22.216 13.96 23.08 14.472 23.784C15.048 24.488 15.72 25.064 16.488 25.512C17.32 25.96 18.216 26.312 19.176 26.568C20.136 26.824 21.096 27.016 22.056 27.144C24.936 27.528 27.816 27.816 30.696 28.008C33.576 28.2 36.392 28.84 39.144 29.928C41.96 31.016 44.36 32.488 46.344 34.344C48.328 36.2 49.736 38.44 50.568 41.064ZM103.31 26.184C103.886 27.08 104.142 28.04 104.078 29.064C104.078 30.536 103.822 31.816 103.31 32.904C103.182 33.224 102.99 33.64 102.734 34.152C102.542 34.664 102.318 35.208 102.062 35.784C101.87 36.36 101.646 36.904 101.39 37.416C101.134 37.928 100.942 38.312 100.814 38.568L100.622 39.048C99.7263 41.032 98.8623 42.952 98.0303 44.808C97.1983 46.664 96.2703 48.648 95.2463 50.76C94.2223 52.808 93.2303 54.824 92.2703 56.808C91.3743 58.728 90.4783 60.616 89.5823 62.472C89.3263 62.984 89.1023 63.496 88.9103 64.008C88.7183 64.456 88.4623 64.936 88.1423 65.448L83.5343 75.336C82.7023 77 81.9023 78.632 81.1343 80.232C80.4303 81.832 79.6303 83.432 78.7343 85.032C78.5423 85.352 78.3503 85.64 78.1583 85.896C78.0303 86.216 77.9023 86.536 77.7743 86.856C77.3263 87.624 76.6543 88.36 75.7583 89.064C74.9263 89.832 74.0303 90.248 73.0703 90.312C71.3423 90.44 69.8383 89.928 68.5583 88.776C67.7903 88.328 67.1823 87.688 66.7343 86.856C66.4783 86.28 66.3503 85.544 66.3503 84.648C66.4143 84.264 66.4463 83.88 66.4463 83.496C66.5103 83.176 66.5743 82.856 66.6383 82.536C66.7663 82.216 66.8623 81.896 66.9263 81.576C66.9903 81.256 67.0863 81 67.2143 80.808C67.4063 80.296 67.5663 80.04 67.6943 80.04L74.7023 64.872C74.3823 64.168 74.0623 63.464 73.7423 62.76C73.4223 61.992 73.1343 61.32 72.8783 60.744C72.0463 58.76 71.1503 56.68 70.1903 54.504C69.2943 52.264 68.3663 50.056 67.4062 47.88C66.4463 45.64 65.4543 43.464 64.4303 41.352C63.4063 39.24 62.3823 37.224 61.3583 35.304C60.9743 34.664 60.6223 33.992 60.3023 33.288C59.9823 32.52 59.7263 31.784 59.5343 31.08C59.3423 30.312 59.2783 29.544 59.3423 28.776C59.4063 28.008 59.6943 27.24 60.2063 26.472C60.7183 25.512 61.3903 24.84 62.2223 24.456C63.0543 24.008 63.9183 23.816 64.8143 23.88C65.7743 23.88 66.6703 24.072 67.5023 24.456C68.3343 24.84 69.0063 25.352 69.5182 25.992C70.6063 27.144 71.4703 28.424 72.1103 29.832C72.7503 31.24 73.3583 32.68 73.9343 34.152C75.1503 36.712 76.3983 39.4 77.6783 42.216C78.9583 45.032 80.2383 47.784 81.5183 50.472L86.5103 39.912C87.0223 38.888 87.4703 37.896 87.8543 36.936C88.3023 35.976 88.7503 35.048 89.1983 34.152C89.7103 33.064 90.1903 31.944 90.6383 30.792C91.1503 29.64 91.7263 28.584 92.3663 27.624C92.4943 27.368 92.6223 27.144 92.7503 26.952C92.8783 26.76 93.0063 26.536 93.1343 26.28C93.7103 25.512 94.2223 24.904 94.6703 24.456C94.9903 24.2 95.2463 24.008 95.4383 23.88C95.6943 23.688 95.9823 23.56 96.3023 23.496C96.7503 23.368 97.1663 23.304 97.5503 23.304C97.9983 23.24 98.4143 23.24 98.7983 23.304C99.4383 23.496 100.206 23.784 101.102 24.168C102.062 24.552 102.798 25.224 103.31 26.184ZM124.608 61.32C124.544 61.64 124.48 61.96 124.416 62.28C124.416 62.536 124.416 62.824 124.416 63.144L123.84 65.16C123.712 65.416 123.616 65.576 123.552 65.64L123.264 66.216C122.944 66.92 122.368 67.496 121.536 67.944C120 68.712 118.368 68.904 116.64 68.52C115.552 68.392 114.688 68.072 114.048 67.56C113.408 67.112 112.96 66.568 112.704 65.928C112.448 65.288 112.256 64.648 112.128 64.008C111.936 63.368 111.84 62.792 111.84 62.28V8.51999C111.84 8.072 111.84 7.688 111.84 7.368C111.904 6.984 111.968 6.632 112.032 6.31199C112.096 5.864 112.16 5.48 112.224 5.16C112.352 4.84 112.48 4.488 112.608 4.10399C112.8 3.46399 113.152 2.952 113.664 2.568C114.432 1.992 115.168 1.672 115.872 1.608C116.32 1.48 116.736 1.41599 117.12 1.41599C117.504 1.352 117.952 1.32 118.464 1.32C119.36 1.32 120.384 1.576 121.536 2.088C122.432 2.6 123.072 3.304 123.456 4.2C124.096 5.48 124.416 6.664 124.416 7.752C124.48 8.392 124.512 9.352 124.512 10.632C124.576 11.912 124.608 12.872 124.608 13.512V13.896C124.736 15.944 124.8 17.928 124.8 19.848C124.8 21.704 124.768 23.752 124.704 25.992C124.704 28.168 124.672 30.28 124.608 32.328C124.608 34.312 124.608 36.296 124.608 38.28V58.44C124.608 58.696 124.608 58.952 124.608 59.208C124.672 59.4 124.704 59.624 124.704 59.88C124.704 60.52 124.672 61 124.608 61.32ZM161.408 25.8C163.264 26.568 164.96 27.688 166.496 29.16C168.032 30.568 169.344 32.2 170.432 34.056C171.584 35.912 172.448 37.928 173.024 40.104C173.664 42.216 173.984 44.36 173.984 46.536C174.048 49.8 173.28 52.872 171.68 55.752C170.144 58.632 167.616 60.84 164.096 62.376C161.408 63.464 158.624 64.296 155.744 64.872C152.928 65.384 149.984 65.736 146.912 65.928V83.496C146.912 83.88 146.848 84.232 146.72 84.552C146.656 84.872 146.624 85.192 146.624 85.512C146.496 86.152 146.336 86.728 146.144 87.24C146.016 87.752 145.824 88.296 145.568 88.872C145.312 89.256 145.056 89.608 144.799 89.928C144.544 90.248 144.256 90.568 143.936 90.888C142.4 91.656 140.8 91.816 139.136 91.368C138.112 91.304 137.28 90.984 136.64 90.408C136.064 89.832 135.648 89.224 135.392 88.584C135.136 87.944 134.912 87.208 134.72 86.376C134.656 86.056 134.592 85.736 134.528 85.416C134.528 85.16 134.528 84.872 134.528 84.552V31.08C134.528 30.696 134.528 30.312 134.528 29.928C134.592 29.48 134.656 29.032 134.72 28.584C134.784 27.816 134.976 27.048 135.296 26.28C135.872 24.68 137.056 23.592 138.848 23.016C140.64 22.44 142.656 22.184 144.896 22.248C146.432 22.312 148 22.472 149.6 22.728C151.264 22.984 152.832 23.304 154.304 23.688C155.84 24.008 157.216 24.36 158.432 24.744C159.648 25.128 160.64 25.48 161.408 25.8ZM161.6 46.536C161.856 44.744 161.632 43.24 160.928 42.024C160.288 40.744 159.36 39.72 158.144 38.952C156.928 38.12 155.52 37.48 153.92 37.032C152.384 36.584 150.848 36.264 149.312 36.072C149.12 36.008 148.8 35.976 148.352 35.976C147.968 35.976 147.52 35.976 147.008 35.976C147.008 38.024 147.008 40.008 147.008 41.928C147.072 43.784 147.072 45.8 147.008 47.976V54.408C148.48 54.344 150.016 54.184 151.616 53.928C153.28 53.672 154.816 53.256 156.224 52.68C157.632 52.104 158.816 51.336 159.776 50.376C160.8 49.416 161.408 48.136 161.6 46.536ZM219.218 50.088C219.282 51.368 219.314 52.712 219.314 54.12C219.314 55.464 219.282 56.712 219.218 57.864C219.154 59.592 219.058 61.192 218.93 62.664C218.802 64.072 218.546 65.288 218.162 66.312C217.778 67.272 217.17 68.008 216.338 68.52C215.57 68.968 214.482 69.096 213.074 68.904C211.602 68.712 210.546 68.008 209.906 66.792C209.266 65.576 208.818 64.2 208.562 62.664C208.37 61.064 208.306 59.464 208.37 57.864C208.434 56.264 208.434 55.016 208.37 54.12C208.306 52.712 208.242 51.112 208.178 49.32C208.178 47.464 207.986 45.736 207.602 44.136C207.282 42.472 206.706 41.064 205.874 39.912C205.042 38.76 203.794 38.152 202.13 38.088C200.018 37.96 198.386 38.12 197.234 38.568C196.146 39.016 195.346 39.688 194.834 40.584C194.322 41.416 194.002 42.44 193.874 43.656C193.81 44.872 193.682 46.184 193.49 47.592L193.394 51.336V58.344C193.394 59.496 193.362 60.712 193.298 61.992C193.298 63.208 193.106 64.328 192.722 65.352C192.338 66.376 191.73 67.24 190.898 67.944C190.13 68.648 188.978 69 187.442 69C185.522 69 184.082 68.392 183.122 67.176C182.226 65.896 181.778 64.328 181.778 62.472V7.272C181.778 6.888 181.778 6.536 181.778 6.216C181.842 5.832 181.906 5.448 181.97 5.064C182.098 4.68 182.194 4.328 182.258 4.008C182.322 3.624 182.418 3.272 182.546 2.952C182.738 2.312 183.058 1.832 183.506 1.512C183.826 1.192 184.146 0.935999 184.466 0.743998C184.786 0.551996 185.138 0.423996 185.522 0.359997C185.842 0.295998 186.194 0.263998 186.578 0.263998C186.962 0.199999 187.346 0.167999 187.73 0.167999C188.69 0.167999 189.618 0.455999 190.514 1.032C190.898 1.288 191.25 1.57599 191.57 1.89599C191.89 2.15199 192.146 2.536 192.338 3.048C192.85 4.264 193.106 5.416 193.106 6.504C193.17 6.824 193.202 7.304 193.202 7.944C193.266 8.52 193.298 9.128 193.298 9.768C193.298 10.408 193.298 11.048 193.298 11.688C193.362 12.264 193.394 12.712 193.394 13.032V13.512C193.458 15.56 193.49 17.64 193.49 19.752C193.49 21.864 193.49 24.008 193.49 26.184V27.816C196.178 26.92 198.994 26.504 201.938 26.568C204.882 26.568 207.506 27.144 209.81 28.296C212.178 29.512 213.97 30.888 215.186 32.424C216.466 33.96 217.394 35.656 217.97 37.512C218.546 39.368 218.866 41.352 218.93 43.464C219.058 45.576 219.154 47.784 219.218 50.088ZM239.061 32.616C239.061 34.408 239.061 36.424 239.061 38.664C239.125 40.904 239.157 43.24 239.157 45.672C239.157 48.04 239.157 50.408 239.157 52.776C239.157 55.08 239.125 57.224 239.061 59.208C238.997 60.168 238.901 61.224 238.773 62.376C238.645 63.464 238.389 64.488 238.005 65.448C237.621 66.408 237.013 67.208 236.181 67.848C235.413 68.424 234.357 68.68 233.013 68.616C231.029 68.488 229.589 67.624 228.693 66.024C227.861 64.424 227.381 62.184 227.253 59.304C227.253 57.832 227.221 56.136 227.157 54.216C227.157 52.296 227.125 50.344 227.061 48.36C227.061 46.376 227.061 44.456 227.061 42.6C227.061 40.68 227.061 38.952 227.061 37.416C227.061 36.52 227.029 35.432 226.965 34.152C226.965 32.872 226.997 31.56 227.061 30.216C227.125 28.872 227.285 27.592 227.541 26.376C227.797 25.096 228.213 24.04 228.789 23.208C229.237 22.696 229.877 22.312 230.709 22.056C231.541 21.736 232.405 21.576 233.301 21.576C234.261 21.576 235.157 21.736 235.989 22.056C236.885 22.376 237.525 22.824 237.909 23.4C238.165 23.784 238.357 24.328 238.485 25.032C238.613 25.736 238.709 26.536 238.773 27.432C238.901 28.264 238.965 29.16 238.965 30.12C239.029 31.016 239.061 31.848 239.061 32.616ZM235.413 13.224C233.429 13.736 231.765 13.544 230.421 12.648C229.141 11.688 228.341 10.28 228.021 8.424C227.765 7.08 227.861 5.896 228.309 4.872C228.757 3.848 229.429 3.08 230.325 2.568C231.221 1.992 232.245 1.736 233.397 1.8C234.549 1.86399 235.701 2.31199 236.853 3.144C237.941 3.912 238.709 4.808 239.157 5.832C239.669 6.856 239.829 7.848 239.637 8.808C239.509 9.768 239.093 10.664 238.389 11.496C237.685 12.264 236.693 12.84 235.413 13.224ZM277.448 1.89599C278.664 1.57599 279.72 1.54399 280.616 1.8C281.576 1.992 282.376 2.408 283.016 3.048C283.72 3.688 284.232 4.488 284.552 5.44799C284.936 6.408 285.128 7.464 285.128 8.616C285.192 11.816 285.192 14.312 285.128 16.104C285.128 17.896 285.128 19.464 285.128 20.808V50.28C285.128 53.736 285.128 56.616 285.128 58.92C285.128 61.224 285 63.112 284.744 64.584C284.552 65.992 284.168 67.048 283.592 67.752C283.08 68.456 282.28 68.936 281.192 69.192C280.104 69.512 278.664 69.672 276.872 69.672C275.144 69.672 272.968 69.672 270.344 69.672C263.432 69.672 257.96 68.04 253.928 64.776C249.96 61.512 247.848 56.328 247.592 49.224C247.464 46.152 247.848 43.336 248.744 40.776C249.64 38.216 250.952 36.04 252.68 34.248C254.472 32.392 256.648 30.984 259.208 30.024C261.832 29 264.808 28.52 268.136 28.584H273.416V11.4C273.416 10.376 273.416 9.384 273.416 8.424C273.416 7.4 273.512 6.472 273.704 5.64C273.896 4.744 274.28 3.976 274.856 3.336C275.432 2.696 276.296 2.216 277.448 1.89599ZM260.744 55.176C262.088 57.032 264.52 58.056 268.04 58.248C268.744 58.312 269.416 58.344 270.056 58.344C270.696 58.28 271.272 58.184 271.784 58.056C272.36 57.992 272.904 57.896 273.416 57.768V40.008C271.176 39.624 269.128 39.4 267.272 39.336C265.48 39.208 263.688 39.848 261.896 41.256C260.936 42.024 260.2 43.016 259.688 44.232C259.176 45.384 258.888 46.632 258.824 47.976C258.76 49.256 258.888 50.536 259.208 51.816C259.528 53.096 260.04 54.216 260.744 55.176Z" fill="white"/>
</svg>
